<svg width="22" height="22" viewBox="0 0 21 20" fill="none" xmlns="http://www.w3.org/2000/svg">
                                <path d="M18.3769 9.58333L18.6089 8.19985C18.7605 7.29524 18.8363 6.84293 18.5935 6.54647C18.3507 6.25 17.9044 6.25 17.0119 6.25L4.65466 6.25C3.76214 6.25 3.31588 6.25 3.07307 6.54647C2.83026 6.84293 2.90609 7.29524 3.05773 8.19985L4.0607 14.1829C4.39314 16.1659 4.55935 17.1574 5.238 17.7454C5.91665 18.3333 6.89492 18.3333 8.85147 18.3333H10.8333" stroke="#14181F" stroke-width="1.5" stroke-linecap="round"></path>
                                <path d="M12.4999 14.9998L19.1666 14.9998M15.8333 18.3332L15.8333 11.6665" stroke="#14181F" stroke-width="1.5" stroke-linecap="round"></path>
                                <path d="M15.4166 6.24984C15.4166 3.71853 13.3646 1.6665 10.8333 1.6665C8.30197 1.6665 6.24994 3.71853 6.24994 6.24984" stroke="#14181F" stroke-width="1.5"></path>
                            </svg>